# xmcd
#
# Track frame offsets:
#	150
#	15470
#	32467
#	51275
#	66255
#	80165
#	96305
#	111751
#	131944
#	146607
#	166355
#	189547
#	213949
#	225221
#
# Disc length: 3294 seconds
#
# Revision: 0
# Processed by: cddbd v1.5.2PL0 Copyright (c) Steve Scherf et al.
# Submitted via: dBpowerAMP V4.0
#
DISCID=bf0cdc0e
DTITLE=경배와 찬양 - 새노래 컬렉션 4
DYEAR=2006
DGENRE=Blues
TTITLE0=우리 죄 위해 죽으신 주
TTITLE1=우리가 이 일에 증인 되었으니
TTITLE2=우리를 지으시고
TTITLE3=우리 기도를
TTITLE4=이 나라 향한 우리 소망
TTITLE5=이전엔 우리 모두
TTITLE6=전능의 주 얼굴을 구하며
TTITLE7=존귀하신 예수
TTITLE8=주 날 건지셨네
TTITLE9=주 성령의 불로 새롭게 하소서
TTITLE10=주 앞에 나아가
TTITLE11=주 이름에 복 있도다
TTITLE12=주 찬양 주 찬양
TTITLE13=주 품에 가까이
EXTD=
EXTT0=
EXTT1=
EXTT2=
EXTT3=
EXTT4=
EXTT5=
EXTT6=
EXTT7=
EXTT8=
EXTT9=
EXTT10=
EXTT11=
EXTT12=
EXTT13=
PLAYORDER=
